<?xml version="1.0" encoding="utf-8"?>
<!-- Generator: Adobe Illustrator 14.0.0, SVG Export Plug-In . SVG Version: 6.00 Build 43363)  -->
<!DOCTYPE svg PUBLIC "-//W3C//DTD SVG 1.1//EN" "http://www.w3.org/Graphics/SVG/1.1/DTD/svg11.dtd">
<svg version="1.1" id="Layer_1" xmlns="http://www.w3.org/2000/svg" xmlns:xlink="http://www.w3.org/1999/xlink" x="0px" y="0px"
	 width="250px" height="250px" viewBox="0 0 250 250" enable-background="new 0 0 250 250" xml:space="preserve">
<g>
	<path fill="#FFFFFF" d="M5,125.007C5,58.734,58.728,5,125.003,5C191.279,5,245,58.734,245,125.007S191.279,245,125.003,245
		C58.728,245,5,191.279,5,125.007z"/>
	<path fill="none" stroke="#000000" stroke-width="3.6467" d="M5,125.007C5,58.734,58.728,5,125.003,5S245,58.734,245,125.007
		S191.279,245,125.003,245S5,191.279,5,125.007z"/>
	<path fill="none" stroke="#000000" stroke-width="3.4059" d="M124.852,237.132c61.844,0,111.998-50.146,111.998-111.998
		S186.696,13.137,124.852,13.137c-61.851,0-111.997,50.146-111.997,111.997S63.001,237.132,124.852,237.132z"/>
	<path d="M124.852,237.133c61.845,0,111.998-50.147,111.998-111.999S186.697,13.137,124.852,13.137
		c-61.851,0-111.996,50.146-111.996,111.997S63.001,237.133,124.852,237.133z"/>
	<path fill="#FFFFFF" d="M124.853,197.905c40.184,0,72.77-32.583,72.77-72.771s-32.586-72.77-72.77-72.77
		c-40.188,0-72.769,32.582-72.769,72.77S84.665,197.905,124.853,197.905z"/>
	<path d="M156.715,190.896c-9.863,4.797-20.749,7.297-32.027,7.243c-11.087-0.04-21.777-2.561-31.453-7.271l-4.445,1.761
		c10.899,5.899,23.142,9.058,35.885,9.111c12.931,0.054,25.375-3.091,36.449-9.064L156.715,190.896 M174.757,183.263
		c1.337-1.155,2.641-2.358,3.903-3.614c14.46-14.339,22.47-33.436,22.563-53.795c0.081-20.359-7.761-39.53-22.1-53.997
		c-14.325-14.453-33.429-22.462-53.792-22.55c-20.359-0.094-39.53,7.754-53.993,22.086c-14.454,14.332-22.463,33.435-22.554,53.794
		c-0.087,20.353,7.754,39.53,22.086,53.99c1.397,1.411,2.842,2.755,4.334,4.045l3.407-1.814c-1.794-1.491-3.528-3.084-5.188-4.764
		c-13.657-13.774-21.128-32.044-21.048-51.443c0.09-19.392,7.72-37.601,21.495-51.255c13.781-13.66,32.051-21.132,51.446-21.045
		c19.396,0.081,37.604,7.714,51.258,21.488c13.653,13.775,21.133,32.051,21.045,51.45c-0.08,19.392-7.714,37.602-21.488,51.255
		c-1.532,1.519-3.124,2.956-4.764,4.327L174.757,183.263z"/>
	<path fill="#EA1B2D" d="M177.074,69.512l-108.06,0.02l4.798,3.232c-0.057-0.034,1.871,1.424,1.871,1.424
		c2.265,1.72,4.684,5.913,4.989,11.39c0.474,8.574,0.252,22.664,0.101,32.958l-0.107,12.518
		c0.266,14.85,10.479,21.623,10.912,21.905c-0.118-0.087,22.12,19.318,22.12,19.318l3.074-0.478l-23.756-20.742
		c-0.235-0.168-9.716-6.511-9.958-20.051l0.104-12.437c0.091-5.57,0.185-12.263,0.185-18.606c0-5.389-0.067-10.529-0.289-14.514
		c-0.363-6.679-3.427-11.268-5.93-13.163c0,0-0.302-0.229-0.474-0.363c6.666,0,89.992-0.02,96.684-0.02
		c-0.175,0.127-0.471,0.356-0.471,0.356c-2.499,1.901-5.557,6.498-5.927,13.17c-0.215,3.978-0.295,9.104-0.295,14.5
		c0,6.33,0.107,13.016,0.188,18.586l0.107,12.471c-0.241,13.539-9.723,19.889-9.823,19.942c-0.128,0.107-24.149,20.87-24.149,20.87
		l3.078,0.538l22.51-19.5c0.309-0.175,10.509-6.947,10.777-21.811l-0.107-12.545c-0.154-10.281-0.363-24.364,0.107-32.925
		c0.296-5.483,2.715-9.669,4.985-11.396l1.929-1.458c-0.054,0.034,1.498-1.001,1.498-1.001l3.259-2.19H177.074"/>
	<line fill="none" stroke="#EA1B2D" stroke-width="0.7981" x1="167.876" y1="106.529" x2="82.111" y2="106.529"/>
	<path fill="#EA1B2D" d="M135.751,106.529v65.298c0,0,19.17-16.328,25.386-22.281c6.222-5.967,7.264-13.479,7.001-18.666
		l-0.262-24.351H135.751"/>
	<path fill="#EA1B2D" d="M114.756,106.529v65.298c0,0-19.173-16.328-25.396-22.281c-6.219-5.967-7.25-13.479-6.992-18.666
		l0.255-24.351H114.756"/>
	<path fill="none" stroke="#EA1B2D" stroke-width="1.1972" d="M116.685,130.228c0,0-0.178,0-0.612,0
		c-1.192,0-1.108,1.861,0.107,1.861c0.464,0,0.544,0,0.544,0 M125.403,139.843c4.768,0,8.627-3.856,8.627-8.614
		c0-4.771-3.859-8.634-8.627-8.634c-4.764,0-8.625,3.863-8.625,8.634C116.779,135.986,120.639,139.843,125.403,139.843z
		 M122.05,139.225v26.904h6.481v-26.851 M128.531,123.139v-10.912h-6.481v11.033"/>
	<path fill="none" stroke="#EA1B2D" stroke-width="0.7981" d="M127.368,139.521v26.608 M127.368,112.421v10.26 M123.226,139.453
		v26.676 M123.226,112.421v10.428"/>
	<path fill="none" stroke="#EA1B2D" stroke-width="0.5986" d="M127.197,165.296h-1.038 M127.197,164.241h-1.038 M127.197,162.534
		h-1.038 M127.197,161.473h-1.038 M127.197,160.565h-1.038 M127.197,159.611h-1.038 M127.197,163.515h-1.563 M127.197,157.696
		h-1.038 M127.197,156.642h-1.038 M127.197,155.579h-1.038 M127.197,154.625h-1.038 M127.197,158.684h-1.563 M127.197,152.408
		h-1.038 M127.197,151.354h-1.038 M127.197,150.298h-1.038 M127.197,149.344h-1.038 M127.197,153.396h-1.563 M127.197,147.274
		h-1.038 M127.197,146.22h-1.038 M127.197,145.165h-1.038 M127.197,144.211h-1.038 M127.197,148.269h-1.563 M127.197,142.302h-1.038
		 M127.197,141.24h-1.038 M127.197,140.192h-1.038 M127.197,143.283h-1.563 M127.197,120.8h-1.038 M127.197,119.477h-1.038
		 M127.197,114.833h-1.038 M127.197,112.73h-1.038 M127.197,113.779h-1.038 M127.197,118.462h-1.038 M127.197,117.394h-1.038
		 M127.197,116.023h-1.563 M127.197,121.902h-1.563"/>
	<path fill="#EA1B2D" d="M124.694,117.461c-0.538,0-0.827-0.41-0.827-0.927c0-0.295,0.104-0.746,0.48-1.129
		c0.373-0.356,0.86-0.477,1.122-0.517c0.02,0.013,0.027,0.081,0.014,0.107c-0.232,0.074-0.558,0.195-0.79,0.45
		c-0.275,0.302-0.373,0.719-0.386,1.035c-0.007,0.457,0.138,0.84,0.426,0.84c0.249,0,0.343-0.229,0.343-0.463
		c0-0.356-0.151-0.659-0.42-0.659c-0.054,0-0.081,0-0.114,0.02c-0.03-0.007-0.043-0.047-0.03-0.074
		c0.111-0.101,0.255-0.141,0.387-0.141c0.346,0,0.584,0.289,0.578,0.692C125.457,117.145,125.141,117.461,124.694,117.461"/>
	<path fill="#EA1B2D" d="M125.313,120.008c0.02,0,0.034,0.013,0.034,0.033c-0.027,0.101-0.074,0.215-0.145,0.296l-0.75,0.107
		c-0.104,0.007-0.111,0.014-0.131,0.094l-0.034,0.134c-0.013,0.04,0,0.054,0.067,0.061l0.255,0.047
		c0.289,0.047,0.813,0.202,0.813,0.779c0,0.645-0.779,1.048-1.364,1.068c-0.04-0.02-0.054-0.087-0.02-0.121
		c0.511-0.061,1.031-0.316,1.031-0.82c0-0.518-0.527-0.618-0.934-0.632c-0.078,0-0.084-0.027-0.064-0.114l0.202-0.712
		c0.013-0.061,0.034-0.087,0.094-0.094L125.313,120.008"/>
	<path fill="#EA1B2D" d="M125.222,142.161c0.03,0,0.037,0.021,0.037,0.027c-0.023,0.094-0.071,0.222-0.138,0.302l-0.753,0.094
		c-0.107,0.027-0.114,0.027-0.138,0.108l-0.034,0.127c-0.006,0.041,0,0.054,0.071,0.067l0.262,0.047
		c0.279,0.041,0.81,0.202,0.81,0.773c0,0.651-0.776,1.055-1.361,1.074c-0.043-0.02-0.063-0.087-0.03-0.127
		c0.511-0.061,1.035-0.323,1.035-0.82c0-0.504-0.531-0.618-0.931-0.632c-0.074,0-0.081-0.013-0.061-0.113l0.198-0.706
		c0.006-0.054,0.034-0.101,0.091-0.101L125.222,142.161"/>
	<path fill="#EA1B2D" d="M124.63,147.221c0.255,0,0.454,0.121,0.591,0.282c0.131,0.168,0.195,0.403,0.188,0.699
		c-0.013,0.376-0.151,0.819-0.578,1.162c-0.289,0.235-0.648,0.356-0.89,0.396c-0.027-0.021-0.047-0.081-0.021-0.107
		c0.215-0.067,0.387-0.175,0.518-0.263c0.289-0.228,0.514-0.584,0.531-1.242c0.014-0.431-0.104-0.786-0.373-0.786
		c-0.158,0-0.315,0.154-0.322,0.463c-0.014,0.282,0.145,0.605,0.37,0.605c0.057,0,0.09,0,0.117-0.014
		c0.027,0.014,0.034,0.047,0.027,0.087c-0.094,0.061-0.205,0.095-0.342,0.095c-0.309,0-0.578-0.235-0.571-0.639
		C123.895,147.503,124.241,147.221,124.63,147.221"/>
	<path fill="#EA1B2D" d="M124.328,152.744c0,0.255,0.269,0.383,0.474,0.483c0.138-0.114,0.208-0.255,0.208-0.443
		c0-0.208-0.125-0.403-0.346-0.403C124.446,152.381,124.328,152.549,124.328,152.744 M125.017,154.102
		c0-0.282-0.198-0.464-0.511-0.611c-0.165,0.134-0.252,0.288-0.252,0.517c0,0.27,0.171,0.457,0.403,0.457
		C124.852,154.464,125.017,154.323,125.017,154.102z M125.333,152.784c0,0.296-0.242,0.424-0.406,0.524
		c0.228,0.114,0.477,0.322,0.477,0.679c0,0.409-0.366,0.611-0.759,0.611c-0.356,0-0.743-0.147-0.743-0.571
		c0-0.303,0.222-0.49,0.484-0.598c-0.195-0.107-0.407-0.296-0.414-0.571c0.007-0.376,0.296-0.632,0.723-0.632
		C125.043,152.227,125.333,152.422,125.333,152.784z"/>
	<path fill="#EA1B2D" d="M125.023,157.286c0.198,0,0.427,0,0.474,0c0.021,0,0.027,0.014,0.027,0.04
		c-0.087,0.135-0.205,0.33-0.356,0.625l-0.944,1.835c-0.061,0.007-0.151-0.021-0.158-0.081l0.931-1.761
		c0.074-0.147,0.125-0.275,0.125-0.302c0-0.021-0.03-0.047-0.084-0.047h-0.743c-0.171,0-0.302,0.026-0.379,0.175
		c-0.021,0.013-0.074,0.006-0.087-0.027c0.054-0.175,0.087-0.329,0.121-0.457c0.078,0,0.188,0,0.387,0H125.023"/>
	<path fill="#EA1B2D" d="M124.694,164.624c-0.538,0-0.827-0.403-0.827-0.928c0-0.302,0.104-0.746,0.48-1.129
		c0.373-0.362,0.86-0.483,1.122-0.511c0.02,0.007,0.027,0.067,0.014,0.095c-0.232,0.087-0.558,0.201-0.79,0.457
		c-0.275,0.295-0.373,0.712-0.386,1.034c-0.007,0.443,0.138,0.833,0.426,0.833c0.249,0,0.343-0.222,0.343-0.457
		c0-0.349-0.151-0.672-0.42-0.672c-0.054,0-0.081,0.014-0.114,0.034c-0.03-0.007-0.043-0.047-0.03-0.074
		c0.111-0.101,0.255-0.134,0.387-0.134c0.346,0,0.584,0.282,0.578,0.685C125.457,164.308,125.141,164.624,124.694,164.624"/>
	<path fill="none" stroke="#EA1B2D" stroke-width="1.1972" d="M167.62,89.609H82.111 M125.127,106.529V71.138"/>
	<path fill="none" stroke="#EA1B2D" stroke-width="0.7981" d="M127.459,127.52l1.122-0.873 M122.188,127.52h5.271v7.21
		 M128.753,126.593h-5.527l-1.125,0.859v7.473h5.442l1.229-1.465L128.753,126.593z"/>
	<path fill="none" stroke="#EA1B2D" stroke-width="0.5986" d="M127.349,134.172h-1.361 M127.349,133.19h-1.361 M127.349,132.236
		h-1.361 M127.349,130.174h-1.361 M127.349,129.119h-1.361 M127.349,128.179h-1.361 M127.349,131.162h-1.878"/>
	<path fill="#EA1B2D" d="M125.03,130.523c0,0.154-0.061,0.302-0.393,0.464c-0.02,0.026-0.007,0.054,0.043,0.054
		c0.272,0.026,0.528,0.215,0.528,0.571c0,0.591-0.632,1.027-1.169,1.027c-0.178,0-0.363-0.073-0.363-0.229
		c0-0.094,0.074-0.175,0.171-0.175c0.101,0,0.171,0.095,0.198,0.135c0.064,0.087,0.118,0.114,0.202,0.114
		c0.171,0,0.534-0.255,0.534-0.692c0-0.309-0.145-0.551-0.454-0.551c-0.138,0-0.269,0.067-0.35,0.147
		c-0.063-0.013-0.111-0.087-0.084-0.147c0.235-0.114,0.716-0.242,0.716-0.618c0-0.201-0.125-0.309-0.282-0.309
		c-0.178,0-0.323,0.114-0.447,0.295c-0.034,0.027-0.067,0-0.078-0.054c0.118-0.269,0.387-0.437,0.682-0.437
		C124.825,130.12,125.03,130.288,125.03,130.523"/>
	<path fill="#EA1B2D" d="M104.493,74.404c0.282,0.027,0.688-0.302,0.688-0.686c0,0,0.151-0.961-0.924-0.927
		c-0.715,0.014-0.971,0.752-0.971,0.752s-0.245-0.739-0.961-0.752c-1.075-0.034-0.924,0.927-0.924,0.927
		c0,0.383,0.413,0.712,0.688,0.686v4.845h-4.925c0.027-0.276-0.302-0.692-0.682-0.692c0,0-0.978-0.154-0.951,0.914
		c0.02,0.706,0.766,0.954,0.766,0.954s-0.746,0.249-0.766,0.967c-0.027,1.048,0.951,0.907,0.951,0.907
		c0.379,0,0.709-0.41,0.682-0.686h4.898l0.014,4.878c-0.282-0.027-0.716,0.302-0.716,0.686c0,0-0.151,0.96,0.921,0.934
		c0.715-0.02,0.971-0.759,0.971-0.759s0.249,0.739,0.964,0.759c1.072,0.027,0.92-0.934,0.92-0.934c0-0.383-0.329-0.712-0.611-0.686
		v-4.878l4.851,0.014c-0.027,0.282,0.303,0.712,0.689,0.712c0,0,0.967,0.141,0.94-0.907c-0.02-0.719-0.763-0.968-0.763-0.968
		s0.743-0.249,0.763-0.961c0.027-1.055-0.94-0.907-0.94-0.907c-0.386,0-0.716,0.403-0.689,0.685h-4.898L104.493,74.404
		 M123.921,72.401l-0.054,16.052c0,0-40.087-0.027-40.094-0.027c0.05,0,0.077-0.692,0.077-1.592c0-3.003-0.807-9.958-5.691-14.433
		C78.902,72.401,123.921,72.401,123.921,72.401z"/>
	<path fill="none" stroke="#EA1B2D" stroke-width="0.5298" stroke-linecap="round" d="M104.449,74.572
		c-0.487,0.081-0.591-0.551-0.171-0.719 M109.193,79.315c-0.084,0.484,0.554,0.584,0.722,0.175 M109.193,81.613
		c-0.084-0.477,0.554-0.584,0.722-0.168 M104.409,86.324c-0.487-0.087-0.591,0.551-0.171,0.719 M102.09,86.324
		c0.487-0.087,0.591,0.551,0.171,0.719 M97.37,81.58c0.084-0.484-0.558-0.591-0.722-0.168 M97.37,79.275
		c0.084,0.49-0.558,0.584-0.722,0.174 M102.131,74.572c0.49,0.081,0.591-0.551,0.171-0.719"/>
	<path fill="none" stroke="#EA1B2D" stroke-width="0.5229" stroke-linecap="round" d="M95.472,80.444h15.431 M103.267,73.013V88.01"
		/>
	<path fill="#EA1B2D" d="M170.57,76.271c0,0,0.026,0.027-2.204,0.027h-6.665v2.137h-5.954v-2.137h-5.872v2.137h-5.799v-2.137h-5.866
		v2.137h-5.872v-2.137h-7.019l-0.067,3.951h7.086v2.244h5.872V80.25h5.792v2.244h5.873V80.25h5.953v2.244h5.873V80.25h6.987
		L170.57,76.271"/>
	<path fill="none" stroke="#EA1B2D" stroke-width="0.7981" d="M146.992,83.32l0.76,1.31h1.505l-0.753,1.304l0.753,1.31h-1.505
		l-0.76,1.311l-0.746-1.311h-1.519l0.76-1.31l-0.76-1.304h1.519L146.992,83.32z M158.664,71.891l0.752,1.311h1.505l-0.752,1.31
		l0.752,1.304h-1.505l-0.752,1.31l-0.76-1.31h-1.505l0.759-1.304l-0.759-1.31h1.505L158.664,71.891z M135.193,71.891l0.759,1.311
		h1.506l-0.76,1.31l0.76,1.304h-1.506l-0.759,1.31l-0.76-1.31h-1.512l0.76-1.304l-0.76-1.31h1.512L135.193,71.891z"/>
	<polyline fill="#EA1B2D" points="167.412,98.768 146.22,92.324 125.037,98.768 125.037,97.034 146.22,90.59 167.412,97.034 
		167.412,98.768 	"/>
	<polyline fill="#EA1B2D" points="167.412,102.127 146.22,95.677 125.037,102.127 125.037,100.394 146.22,93.95 167.412,100.394 
		167.412,102.127 	"/>
	<polyline fill="#EA1B2D" points="167.412,105.487 146.22,99.043 125.037,105.487 125.037,103.747 146.22,97.303 167.412,103.747 
		167.412,105.487 	"/>
	<path d="M175.14,209.112c-1.035,0.483-1.297,0.807-1.297,0.807l-0.128-0.564l4.019-4.912l3.373,3.434l-0.888,0.168
		C180.219,208.044,176.141,208.635,175.14,209.112"/>
	<path d="M143.263,188.954c0.564,0.847,0.175,1.593,0.175,1.593l0.471-1.062l-0.524-2.54l-3.494-1.008l-0.355,0.296
		C139.534,186.233,142.691,188.107,143.263,188.954"/>
	<path d="M130.369,185.991c-1.472,0.483-2.379,1.976-2.379,1.976l-0.275-0.377l1.058-2.714l6.038,0.523l0.114,0.363
		C134.925,185.763,132.754,185.231,130.369,185.991"/>
	<path d="M120.38,186.287c0.874,0.497,1.629,1.68,1.629,1.68l0.145-0.672l-1.247-2.486l-5.56,0.121l-0.232,0.537
		C115.116,185.467,119.503,185.803,120.38,186.287"/>
	<path d="M106.838,188.713c-0.564,0.974-0.178,2.016-0.178,2.016l-0.648-1.129l0.648-2.654l3.487-0.887l0.295,0.35
		C110.442,186.408,107.402,187.738,106.838,188.713"/>
	<path d="M74.142,208.931c1.025,0.35,2.016,1.001,2.016,1.001l0.111-0.517l-4.313-4.616l-2.547,2.6l-0.413,0.773
		C68.995,208.172,73.261,208.648,74.142,208.931"/>
	<path fill="none" stroke="#000000" stroke-width="0.7981" d="M115.176,185.467c-0.067,0-0.145,0.007-0.211,0.014
		c-0.786-5.752-0.786-5.806-0.786-5.806l-3.041,0.551l-0.696,6.135l-0.158,0.027c-2.489,0.88-4.099,2.23-3.934,3.541
		c0.225,1.854,3.927,2.916,8.248,2.379c4.327-0.545,7.646-2.486,7.411-4.341C121.812,186.32,118.865,185.292,115.176,185.467z
		 M53.631,200.941l5.785,5.598l-2.352,6.087c11.057-0.349,19.093-1.424,19.093-2.694c0-0.732-2.725-1.263-7.163-1.76l-6.585-7.936
		C59.645,200.545,56.698,200.787,53.631,200.941z M109.908,173.701c-0.86-0.847-1.062-0.847-1.062-0.847
		c-1.996,0.155-1.794,0.155-1.794,0.155c-21.901,3.238-39.372,12.041-46.528,23.302l0.091,0.336
		c1.932,4.879,5.846,7.688,8.188,11.061c0.211,0.309,0.211,0.309,0.211,0.309l0.682-0.726c7.68-10.24,22.5-18.041,40.554-21.031
		l0.034,0.128C110.285,186.388,111.709,175.489,109.908,173.701z"/>
	<path d="M113.732,174.098l-0.007-0.215c-0.007-0.154-0.021-0.296-0.027-0.443L113.732,174.098z"/>
	<path fill="none" stroke="#000000" stroke-width="0.7981" d="M113.732,174.098l-0.007-0.215c-0.007-0.154-0.021-0.296-0.027-0.443
		L113.732,174.098z"/>
	<path d="M113.725,173.883c0.007,0.067,0.013,0.142,0.013,0.208"/>
	<path fill="none" stroke="#000000" stroke-width="0.7981" d="M113.725,173.883c0.007,0.067,0.013,0.142,0.013,0.208"/>
	<path d="M110.947,180.226c0.406-0.026,2.422-0.322,2.95-0.45L110.947,180.226z"/>
	<path fill="none" stroke="#000000" stroke-width="0.7981" d="M110.947,180.226c0.406-0.026,2.422-0.322,2.95-0.45L110.947,180.226z
		"/>
	<path fill="none" stroke="#000000" stroke-width="0.7981" d="M196.372,200.935c-3.063-0.154-6.007-0.39-8.788-0.712l-6.538,7.949
		c-4.429,0.504-7.203,1.015-7.203,1.747c0,1.27,8.043,2.338,19.089,2.694l-2.345-6.088L196.372,200.935z M189.391,196.642
		l0.088-0.33c-7.149-11.274-24.62-20.063-46.524-23.315c0,0,0.201,0-1.794-0.154c0,0-0.202,0-1.062,0.853
		c-1.808,1.788-0.988,5.241-0.76,8.117c0.383,4.569,0.383,4.569,0.383,4.569l0.034-0.121c18.055,2.977,32.87,10.784,40.558,21.024
		l0.672,0.72c0,0,0,0,0.215-0.31C183.538,204.321,187.463,201.52,189.391,196.642z"/>
	<path d="M135.039,185.467c-0.095,0-0.182,0-0.282-0.007"/>
	<path fill="none" stroke="#000000" stroke-width="0.7981" d="M135.039,185.467c-0.095,0-0.182,0-0.282-0.007"/>
	<path d="M134.757,185.46c-0.041-0.007-0.095-0.007-0.142-0.007"/>
	<path fill="none" stroke="#000000" stroke-width="0.7981" d="M134.757,185.46c-0.041-0.007-0.095-0.007-0.142-0.007"/>
	<path fill="none" stroke="#000000" stroke-width="0.7981" d="M140.045,186.502c-0.102-0.047-0.216-0.081-0.323-0.121l-0.127-0.027
		c-0.538-6.128-0.538-6.128-0.538-6.128l-3.104-0.497l-0.745,5.772l-0.592-0.048c-3.592-0.12-6.427,0.895-6.625,2.514
		c-0.229,1.848,3.087,3.789,7.411,4.327c4.327,0.537,8.022-0.518,8.251-2.365C143.814,188.665,142.35,187.375,140.045,186.502z"/>
	<path d="M136.302,173.426c0,0.148-0.014,0.296-0.021,0.443l-0.006,0.222L136.302,173.426z"/>
	<path fill="none" stroke="#000000" stroke-width="0.7981" d="M136.302,173.426c0,0.148-0.014,0.296-0.021,0.443l-0.006,0.222
		L136.302,173.426z"/>
	<path fill="none" stroke="#000000" stroke-width="0.7981" d="M125.01,171.356c4.085,0,7.932,0.363,11.312,0.981
		c-0.021,1.088-0.021,1.088-0.021,1.088l-0.021,0.443c-0.215,4.2-0.584,8.117-1.074,11.632c0,0-6.696-0.82-10.197-0.82l-0.014,0.014
		c-3.504,0-6.84,0.215-9.874,0.611c0,0-1.149-6.988-1.384-11.215l-0.054-0.39c0,0,0,0,0-1.357c3.37-0.618,7.223-0.974,11.312-0.974
		L125.01,171.356z"/>
	<path fill="#FFFFFF" stroke="#000000" stroke-width="0.7981" d="M115.19,185.453c-0.067,0-0.145,0.007-0.212,0.014
		c-0.786-5.752-0.786-5.806-0.786-5.806l-3.041,0.551l-0.695,6.135l-0.158,0.027c-2.488,0.88-4.098,2.23-3.934,3.541
		c0.225,1.854,3.928,2.916,8.248,2.379c4.327-0.545,7.646-2.486,7.411-4.341C121.825,186.307,118.878,185.278,115.19,185.453z
		 M53.644,200.928l5.785,5.598l-2.352,6.087c11.057-0.349,19.093-1.424,19.093-2.694c0-0.732-2.725-1.263-7.162-1.76l-6.586-7.936
		C59.658,200.531,56.711,200.773,53.644,200.928z M109.921,173.688c-0.86-0.847-1.062-0.847-1.062-0.847
		c-1.996,0.155-1.794,0.155-1.794,0.155c-21.901,3.238-39.372,12.041-46.528,23.302l0.092,0.336
		c1.932,4.879,5.846,7.688,8.188,11.061c0.211,0.309,0.211,0.309,0.211,0.309l0.682-0.726c7.681-10.24,22.5-18.041,40.555-21.031
		l0.033,0.128C110.297,186.374,111.722,175.476,109.921,173.688z"/>
	<path fill="#FFFFFF" stroke="#000000" stroke-width="0.7981" d="M196.385,200.921c-3.063-0.154-6.006-0.39-8.787-0.712
		l-6.539,7.949c-4.428,0.504-7.203,1.015-7.203,1.747c0,1.27,8.043,2.338,19.09,2.694l-2.346-6.088L196.385,200.921z
		 M189.404,196.628l0.088-0.33c-7.15-11.274-24.621-20.063-46.525-23.315c0,0,0.201,0-1.793-0.154c0,0-0.203,0-1.063,0.853
		c-1.807,1.788-0.988,5.241-0.76,8.117c0.383,4.569,0.383,4.569,0.383,4.569l0.035-0.121c18.055,2.977,32.869,10.784,40.557,21.024
		l0.672,0.72c0,0,0,0,0.215-0.31C183.551,204.308,187.477,201.506,189.404,196.628z"/>
	<path fill="#FFFFFF" stroke="#000000" stroke-width="0.7981" d="M140.059,186.488c-0.102-0.047-0.217-0.081-0.324-0.121
		l-0.127-0.027c-0.537-6.128-0.537-6.128-0.537-6.128l-3.105-0.497l-0.744,5.772l-0.592-0.048c-3.592-0.12-6.428,0.895-6.625,2.514
		c-0.229,1.848,3.086,3.789,7.41,4.327c4.328,0.537,8.023-0.518,8.252-2.365C143.828,188.651,142.363,187.361,140.059,186.488z"/>
	<path fill="#FFFFFF" stroke="#000000" stroke-width="0.7981" d="M125.024,171.343c4.085,0,7.931,0.363,11.312,0.981
		c-0.021,1.088-0.021,1.088-0.021,1.088l-0.02,0.443c-0.215,4.2-0.584,8.117-1.074,11.632c0,0-6.697-0.82-10.197-0.82l-0.014,0.014
		c-3.504,0-6.841,0.215-9.875,0.611c0,0-1.148-6.988-1.384-11.215l-0.054-0.39c0,0,0,0,0-1.357
		c3.369-0.618,7.223-0.974,11.313-0.974L125.024,171.343z"/>
	<g>
		<path fill="#FFFFFF" d="M94.515,212.989c1.653,0.578,2.422,2.486,1.804,4.273c-0.642,1.841-2.409,2.822-4.069,2.244
			c-1.596-0.551-2.442-2.438-1.801-4.273C91.067,213.446,92.918,212.438,94.515,212.989"/>
		<path fill="#FFFFFF" d="M111.235,229.068l-8.188-1.424l0.094-0.571c2.533,0.457,2.762-0.484,3.021-1.989l1.612-9.34
			c0.101-0.611,0.289-1.68-0.564-1.821c-0.309-0.054-1.102,0.114-1.901,0.296l0.111-0.632l5.967-1.693l0.37,0.061l-2.385,13.842
			c-0.276,1.62-0.195,2.312,1.969,2.688L111.235,229.068"/>
		<path fill="#FFFFFF" d="M119.376,229.25c1.965,0.107,2.083-2.137,2.117-2.769c0.111-2.016-1.28-3.151-2.725-4.341
			c-0.729,1.075-1.229,1.808-1.32,3.602C117.36,227.517,117.938,229.176,119.376,229.25 M121.079,219.399
			c0.558-0.739,0.978-1.304,1.062-2.781c0.06-1.257-0.178-3.018-1.818-3.104c-1.078-0.054-1.865,0.894-1.918,1.901
			C118.288,217.699,120.868,219.265,121.079,219.399z M124.782,216.604c-0.107,2.096-1.945,2.889-3.192,3.266
			c1.838,1.357,3.171,3.151,3.054,5.436c-0.165,3.084-2.298,4.892-5.47,4.724c-2.385-0.121-4.549-1.666-4.411-4.367
			c0.138-2.688,2.026-3.548,3.538-3.984c-1.603-1.129-2.943-2.688-2.842-4.737c0.125-2.285,1.713-4.301,5.258-4.119
			C124.08,212.989,124.852,215.207,124.782,216.604z"/>
		<path fill="#FFFFFF" d="M136.033,229.378l-9.199,0.604l-0.036-0.564c3.295-4.481,5.762-7.908,5.573-10.812
			c-0.047-0.686-0.564-3.117-2.843-2.977c-0.507,0.04-1.871,0.275-2.55,2.398l-0.621,0.041c0.353-1.438,1.418-5.134,4.535-5.335
			c1.364-0.095,4.146,0.591,4.401,4.327c0.04,0.712,0.168,2.58-2.177,5.422l-3.34,4.025l3.34-0.222
			c2.345-0.155,2.526-0.41,3.037-2.124l0.53-0.033L136.033,229.378"/>
		<path fill="#FFFFFF" d="M142.336,214.716h-0.04l-3.186,7.963l4.556-0.847L142.336,214.716 M148.148,220.985l0.51,2.688
			l-1.377,0.262l0.658,3.487l-3.158,0.585l-0.658-3.48l-5.402,1.001l-0.511-2.728c1.297-3.797,3.4-8.427,4.865-11.712l1.747-0.329
			l1.962,10.481L148.148,220.985z"/>
		<path fill="#FFFFFF" d="M156.715,212.553c1.646-0.592,3.447,0.409,4.099,2.197c0.659,1.827-0.107,3.702-1.753,4.293
			c-1.579,0.571-3.421-0.355-4.086-2.184C154.323,215.072,155.129,213.137,156.715,212.553"/>
		<path fill="#FFFFFF" d="M45.229,174.515c-1.347-2.204-2.338-2.809-5.083-1.169c-2.14,1.276-2.638,2.526-1.825,3.87
			c0.558,0.927,0.813,0.826,1.516,0.518L45.229,174.515 M48.084,162.729l2.073,3.468l-4.529,7.458l0.275,0.45l4.143-2.466
			c1.693-1.015,1.535-1.425,1.058-2.661l0.531-0.315l3.42,5.725l-0.537,0.31c-0.854-1.042-1.123-1.338-2.836-0.323l-9.343,5.584
			c-1.818,1.089-1.549,1.633-1.052,2.647l-0.531,0.315l-3.255-5.449c-0.709-1.183-2.681-4.871,0.876-6.987
			c2.594-1.56,4.291-0.209,5.194,0.49l3.998-6.995c0.231-0.464,0.101-0.726-0.014-0.94L48.084,162.729z"/>
		<path fill="#FFFFFF" d="M32.804,169.166l-4.273-10.543l4.583-1.861l0.185,0.45c-3.067,1.754-3.118,3.272-2.113,5.738
			c0.407,1.009,0.628,1.297,1.613,0.895l5.298-2.144c-0.688-1.761-1.66-2.453-4.606-1.579l-0.191-0.471l7.714-3.138l0.191,0.477
			c-2.758,1.371-3.067,2.594-2.332,4.395l5.517-2.244c1.015-0.416,1.142-0.873,0.662-2.056c-0.729-1.788-2.076-3.407-5.994-3.158
			l-0.205-0.511l5.042-1.196l4.341,10.677l-0.571,0.235c-0.564-0.98-0.867-1.532-2.278-0.954l-11.05,4.488
			c-1.505,0.618-1.236,1.398-0.961,2.265L32.804,169.166"/>
		<path fill="#FFFFFF" d="M42.89,151.487c-0.434-1.108-0.729-1.605-2.312-1.229l-11.359,2.688c-1.397,1.465-1.397,1.788-1.344,2.043
			l-0.598,0.135l-0.958-4.045l8.658-9.071l-0.007-0.041l-7.26,1.714c-1.438,0.343-2.174,0.76-1.956,2.345l-0.598,0.148l-0.978-4.126
			l0.602-0.141c0.541,1.323,1.119,1.31,2.271,1.041l14.117-3.333l0.131,0.524L30.325,151.75l0.013,0.04l9.585-2.271
			c1.72-0.41,2.086-0.92,1.942-2.385l0.598-0.142l1.031,4.361L42.89,151.487"/>
		<path fill="#FFFFFF" d="M28.027,130.53c-1.683,0.511-4.394,1.948-4.183,4.267c0.098,1.015,0.931,2.029,2.526,1.875
			c1.32-0.114,1.831-0.531,2.705-2.285l1.525-3.051c0.359-0.698,1.64-2.317,4.313-2.573c2.154-0.194,5.245,0.786,5.574,4.401
			c0.171,1.861-0.584,2.822-0.521,3.427c0.04,0.417,0.487,0.471,0.887,0.511l0.054,0.571l-6.054,0.564l-0.054-0.571
			c2.442-0.625,5.103-2.016,4.878-4.502c-0.222-2.365-2.657-2.244-2.98-2.204c-1.64,0.147-2.147,1.115-2.789,2.466l-0.658,1.392
			c-1.707,3.534-3.813,3.735-4.942,3.829c-1.498,0.148-4.892-0.154-5.234-3.877c-0.144-1.579,0.578-2.566,0.528-3.145
			c-0.041-0.45-0.417-0.511-0.894-0.564l-0.054-0.591l5.325-0.49L28.027,130.53"/>
		<path fill="#FFFFFF" d="M28.078,118.677c-1.734,0.302-4.603,1.404-4.667,3.729c-0.033,1.021,0.675,2.124,2.278,2.17
			c1.334,0.034,1.885-0.322,2.967-1.949l1.878-2.842c0.434-0.658,1.905-2.116,4.589-2.036c2.167,0.067,5.11,1.411,5.009,5.04
			c-0.057,1.861-0.911,2.721-0.931,3.346c-0.013,0.403,0.427,0.511,0.82,0.611l-0.014,0.571l-6.084-0.175l0.01-0.578
			c2.503-0.322,5.318-1.384,5.386-3.884c0.07-2.365-2.365-2.526-2.685-2.54c-1.649-0.047-2.268,0.86-3.067,2.117l-0.826,1.303
			c-2.12,3.313-4.237,3.246-5.359,3.211c-1.508-0.04-4.838-0.745-4.733-4.495c0.047-1.572,0.887-2.473,0.9-3.044
			c0.013-0.457-0.35-0.558-0.82-0.679l0.023-0.591l5.338,0.155L28.078,118.677"/>
		<path fill="#FFFFFF" d="M23.32,114.585l1.837-11.214l4.885,0.793l-0.081,0.49c-3.524-0.121-4.358,1.169-4.784,3.79
			c-0.178,1.068-0.138,1.438,0.91,1.606l5.634,0.92c0.336-1.861-0.138-2.957-3.104-3.743l0.084-0.504l8.214,1.351l-0.081,0.497
			c-3.077-0.262-3.971,0.605-4.287,2.533l5.882,0.968c1.072,0.174,1.425-0.148,1.63-1.411c0.315-1.908,0.006-3.991-3.467-5.826
			l0.091-0.544l4.932,1.606l-1.865,11.389l-0.611-0.107c0.041-1.136,0.061-1.747-1.444-1.996l-11.759-1.922
			c-1.603-0.262-1.791,0.551-2.009,1.431L23.32,114.585"/>
		<path fill="#FFFFFF" d="M45.259,94.024l-3.471,10.845l-0.584-0.182c0.171-1.102,0.282-1.693-1.149-2.157l-11.359-3.628
			c-1.549-0.491-1.845,0.269-2.181,1.082l-0.584-0.181l2.09-6.558l0.584,0.195c-0.35,1.331-0.507,1.922,1.555,2.587l11.077,3.534
			c1.122,0.363,1.448,0.007,1.844-1.243c0.911-2.836-0.702-4.509-3.074-6.229l0.165-0.538L45.259,94.024"/>
		<path fill="#FFFFFF" d="M43.572,83.932l-6.242-0.894l4.522,4.327L43.572,83.932 M51.457,81.15l-2.849,5.711l-0.551-0.269
			c0.434-1.149,0.571-1.478-0.158-1.841c-0.591-0.296-2.506-0.551-3.336-0.652l-1.975,3.964c1.34,1.284,2.106,2.022,2.456,2.19
			c0.833,0.423,1.32-0.39,1.667-0.967l0.558,0.275l-1.791,3.582l-0.551-0.276c0.295-1.042-0.323-1.666-1.72-3.017l-10.12-9.938
			l0.239-0.491l13.556,1.848c2.758,0.383,3.645,0.477,4.025-0.39L51.457,81.15z"/>
		<path fill="#FFFFFF" d="M38.039,71.286l6.565-9.293l4.038,2.862l-0.282,0.396c-3.125-1.64-4.432-0.86-5.963,1.317
			c-0.622,0.88-0.753,1.23,0.114,1.841l4.66,3.306c1.115-1.539,1.176-2.728-1.149-4.737l0.302-0.41l6.79,4.804l-0.296,0.417
			c-2.647-1.579-3.83-1.189-4.959,0.403l4.872,3.44c0.887,0.625,1.34,0.491,2.076-0.544c1.116-1.585,1.754-3.595-0.564-6.759
			l0.316-0.45l3.723,3.602l-6.646,9.414l-0.511-0.356c0.531-1.001,0.82-1.545-0.427-2.426l-9.726-6.88
			c-1.331-0.941-1.844-0.289-2.436,0.41L38.039,71.286"/>
		<path fill="#FFFFFF" d="M56.245,61.086c1.777-1.881,2.1-2.997-0.205-5.208c-1.797-1.727-3.118-1.888-4.213-0.752
			c-0.756,0.786-0.584,0.995-0.101,1.599L56.245,61.086 M68.37,60.757l-2.802,2.903l-8.386-2.413l-0.373,0.39l3.48,3.339
			c1.418,1.371,1.771,1.108,2.836,0.322l0.447,0.437l-4.623,4.791l-0.447-0.43c0.79-1.102,1.011-1.438-0.427-2.815l-7.838-7.559
			c-1.525-1.465-1.989-1.068-2.842-0.323l-0.44-0.43L51.36,54.4c0.958-0.988,3.998-3.857,6.978-0.988
			c2.18,2.103,1.327,4.092,0.887,5.147l7.801,2.022c0.511,0.107,0.739-0.087,0.904-0.255L68.37,60.757z"/>
		<path fill="#FFFFFF" d="M71.168,48.306c1.989-1.304,2.318-2.399,0.578-4.919c-1.589-2.311-2.705-2.674-4.032-1.76
			c-0.558,0.383-0.584,0.793-0.295,1.25L71.168,48.306 M71.555,57.411c0.682-0.719,0.702-0.759,0.743-0.934
			c0.07-0.316,0.117-0.739-0.669-1.875l-6.178-8.964c-1.169-1.7-1.72-1.417-2.647-0.927l-0.353-0.504l5.224-3.602
			c1.3-0.894,4.465-2.627,6.817,0.8c0.497,0.712,1.31,2.278,0.642,4.079c-0.538,1.445-1.347,2.036-3.474,3.541l2.601,3.77
			c1.135,1.646,1.465,1.465,2.718,0.88l0.343,0.504l-5.416,3.736L71.555,57.411z"/>
		<path fill="#FFFFFF" d="M81.083,42.205c0.938,1.936,3.564,7.089,6.599,5.618c3.037-1.472,0.615-6.726-0.316-8.655
			c-1.569-3.238-4.119-6.827-6.605-5.617C78.277,34.753,79.517,38.973,81.083,42.205 M90.503,37.649
			c2.258,4.65,1.169,9.145-2.462,10.906c-3.639,1.76-7.838-0.175-10.092-4.825c-2.349-4.838-0.964-9.259,2.462-10.912
			C83.837,31.158,88.158,32.811,90.503,37.649z"/>
		<path fill="#FFFFFF" d="M105.373,41.741L94.467,45.02l-0.171-0.584c0.998-0.49,1.546-0.732,1.112-2.17l-3.434-11.423
			c-0.46-1.552-1.243-1.371-2.117-1.183l-0.181-0.591l6.585-1.975l0.181,0.591c-1.3,0.463-1.881,0.665-1.253,2.741l3.343,11.134
			c0.329,1.136,0.806,1.196,2.073,0.813c2.846-0.853,3.316-3.131,3.383-6.054l0.551-0.168L105.373,41.741"/>
		<path fill="#FFFFFF" d="M117.461,23.66c-0.356,0.127-0.907,0.302-1.189,1.135l-2.671,8.104l0.628,4.495
			c0.282,2.023,0.715,2.016,2.103,1.996l0.091,0.604l-6.776,0.947l-0.077-0.611c1.313-0.356,1.784-0.47,1.501-2.493l-0.504-3.588
			l-4.707-7.6c-0.124-0.208-0.742-1.196-1.747-1.122l-0.081-0.611l6.535-0.914l0.084,0.611c-1.344,0.188-1.556,0.363-1.458,1.048
			c0.047,0.363,0.447,0.934,0.652,1.303l3.138,5.329l1.536-4.811c0.094-0.282,0.534-1.713,0.44-2.379
			c-0.131-0.947-0.86-0.9-1.791-0.847l-0.081-0.604l4.294-0.598L117.461,23.66"/>
		<path fill="#FFFFFF" d="M129.673,39.685l-7.038-0.087l0.007-0.611c1.438-0.134,1.915-0.175,1.949-2.238l0.158-12.988
			c-1.377,0.081-3.414,0.175-3.854,4.112l-0.571-0.007l0.125-4.945l11.83,0.141l-0.034,4.952l-0.567-0.007
			c-0.35-3.938-2.372-4.092-3.729-4.206l-0.164,12.981c-0.034,2.097,0.439,2.144,1.897,2.292L129.673,39.685"/>
		<path fill="#FFFFFF" d="M135.025,23.283l11.221,1.801l-0.772,4.878l-0.49-0.067c0.107-3.528-1.176-4.354-3.804-4.777
			c-1.068-0.168-1.438-0.134-1.605,0.907l-0.894,5.651c1.854,0.316,2.956-0.148,3.723-3.125l0.504,0.087l-1.311,8.211l-0.511-0.074
			c0.256-3.077-0.618-3.964-2.54-4.273l-0.94,5.886c-0.175,1.068,0.147,1.424,1.411,1.62c1.915,0.309,3.998-0.014,5.806-3.481
			l0.551,0.081l-1.586,4.939l-11.383-1.828l0.095-0.605c1.129,0.034,1.747,0.054,1.988-1.451l1.882-11.772
			c0.255-1.606-0.558-1.78-1.438-1.996L135.025,23.283"/>
		<path fill="#FFFFFF" d="M158.301,42.736c-2.002,1.505-3.938,2.506-6.343,1.733c-4.368-1.404-5.497-6.014-4.079-10.395
			c1.539-4.764,5.416-7.552,9.354-6.275c1.687,0.531,2.762,2.15,3.252,2.311c0.504,0.162,0.833-0.275,1.217-0.799l0.497,0.161
			l-1.768,5.49l-0.464-0.155c0-2.251-0.691-5.503-2.835-6.195c-2.735-0.88-4.623,2.473-5.899,6.437
			c-0.457,1.404-1.068,3.689-0.854,5.416c0.242,1.942,1.605,2.769,2.184,2.957c1.465,0.477,3.104,0.222,5.362-1.458L158.301,42.736"
			/>
		<path fill="#FFFFFF" d="M170.651,52.485l-5.954-3.084l0.282-0.544c0.995,0.35,1.68,0.591,2.379-0.732l2.601-5.04l-4.227-2.184
			l-2.594,5.04c-0.692,1.33-0.087,1.753,0.772,2.365l-0.282,0.544l-5.906-3.05l0.282-0.544c1.015,0.329,1.633,0.504,2.298-0.779
			l5.47-10.59c0.739-1.424,0.014-1.861-0.672-2.325l0.275-0.544l5.906,3.044l-0.289,0.544c-0.806-0.33-1.633-0.699-2.371,0.746
			l-2.353,4.529l4.22,2.177l2.353-4.522c0.738-1.444-0.048-1.908-0.78-2.372l0.282-0.551l5.954,3.084l-0.282,0.544
			c-0.793-0.322-1.613-0.658-2.346,0.759l-5.476,10.59c-0.686,1.304-0.107,1.713,0.739,2.345L170.651,52.485"/>
		<path fill="#FFFFFF" d="M170.974,52.008c1.048,0.571,1.599,0.766,2.566-0.538l6.988-9.347c0.135-2.022-0.067-2.271-0.275-2.432
			l0.369-0.491l3.326,2.486l-0.819,12.518l0.033,0.027l4.476-5.98c0.88-1.189,1.176-1.975-0.007-3.057l0.362-0.484l3.394,2.527
			l-0.363,0.497c-1.276-0.672-1.706-0.289-2.419,0.658l-8.681,11.625l-0.443-0.329l0.967-15.945l-0.04-0.021l-5.893,7.889
			c-1.055,1.424-1.001,2.049,0.047,3.071l-0.369,0.497l-3.582-2.667L170.974,52.008"/>
		<path fill="#FFFFFF" d="M186.481,65.682l-4.985-4.771l0.423-0.443c0.86,0.645,1.479,1.102,2.533,0.007l8.238-8.621
			c1.129-1.183,0.49-1.854-0.114-2.533l0.423-0.45l4.986,4.764l-0.431,0.443c-0.698-0.598-1.397-1.236-2.553-0.027l-8.238,8.621
			c-1.089,1.142-0.571,1.74,0.147,2.56L186.481,65.682"/>
		<path fill="#FFFFFF" d="M197.555,73.913c-2.492,0.188-4.67-0.02-6.262-1.962c-2.917-3.561-1.364-8.036,2.203-10.959
			c3.857-3.172,8.628-3.4,11.262-0.208c1.115,1.371,1.143,3.313,1.465,3.709c0.343,0.41,0.86,0.215,1.458-0.013l0.343,0.41
			l-4.461,3.655l-0.31-0.39c1.21-1.888,2.392-4.993,0.975-6.733c-1.835-2.224-5.234-0.43-8.446,2.211
			c-1.143,0.934-2.903,2.52-3.655,4.085c-0.86,1.761-0.154,3.205,0.241,3.676c0.975,1.189,2.479,1.861,5.295,1.68L197.555,73.913"/>
		<path fill="#FFFFFF" d="M201.237,86.397l-3.373-6.014l0.537-0.309c0.632,0.874,1.103,1.492,2.426,0.752l10.401-5.832
			c1.418-0.793,1.015-1.62,0.639-2.453l0.537-0.296l3.367,6.021l-0.538,0.303c-0.49-0.786-0.975-1.606-2.439-0.786l-10.401,5.826
			c-1.384,0.766-1.062,1.498-0.618,2.486L201.237,86.397"/>
		<path fill="#FFFFFF" d="M202.07,86.223c0.604,1.035,0.968,1.485,2.479,0.867l10.812-4.408c1.155-1.666,1.102-1.989,1.008-2.23
			l0.571-0.229l1.565,3.85l-7.149,10.308l0.014,0.04l6.914-2.822c1.364-0.558,2.029-1.089,1.559-2.614l0.571-0.242l1.605,3.931
			l-0.57,0.229c-0.746-1.229-1.317-1.122-2.406-0.679l-13.438,5.483l-0.208-0.504l9.051-13.17l-0.014-0.033l-9.125,3.722
			c-1.639,0.666-1.914,1.23-1.552,2.654l-0.571,0.229l-1.687-4.146L202.07,86.223"/>
		<path fill="#FFFFFF" d="M219.997,104.647c1.586-0.766,4.045-2.601,3.475-4.852c-0.249-1.001-1.229-1.875-2.782-1.478
			c-1.297,0.322-1.733,0.813-2.325,2.674l-1.041,3.252c-0.242,0.752-1.264,2.546-3.863,3.205c-2.104,0.531-5.302,0.034-6.188-3.48
			c-0.457-1.814,0.141-2.883-0.014-3.474c-0.101-0.396-0.551-0.39-0.954-0.37l-0.135-0.558l5.899-1.485l0.135,0.558
			c-2.312,0.988-4.737,2.775-4.126,5.208c0.578,2.292,2.97,1.787,3.279,1.713c1.6-0.403,1.948-1.445,2.379-2.876l0.443-1.471
			c1.143-3.763,3.185-4.273,4.287-4.556c1.465-0.363,4.864-0.591,5.765,3.037c0.396,1.539-0.168,2.634-0.04,3.191
			c0.121,0.43,0.497,0.437,0.98,0.423l0.148,0.571l-5.194,1.303L219.997,104.647"/>
		<path fill="#FFFFFF" d="M210.228,118.872l-0.786-6.988l0.611-0.067c0.303,1.417,0.403,1.875,2.459,1.646l12.901-1.451
			c-0.248-1.357-0.604-3.36-4.569-3.313l-0.054-0.571l4.919-0.497l1.33,11.765l-4.918,0.584l-0.061-0.571
			c3.877-0.827,3.77-2.862,3.716-4.227l-12.908,1.458c-2.076,0.229-2.076,0.706-2.029,2.17L210.228,118.872"/>
		<path fill="#FFFFFF" d="M210.355,128.729l0.02-6.901h0.618c0.121,1.068,0.216,1.841,1.747,1.841l11.92,0.034
			c1.627,0.007,1.674-0.914,1.754-1.828h0.611l-0.013,6.901h-0.618c-0.047-0.928-0.067-1.875-1.74-1.875l-11.927-0.04
			c-1.579,0-1.653,0.786-1.761,1.868H210.355"/>
		<path fill="#FFFFFF" d="M209.354,138.674l0.833-6.995l0.604,0.074c-0.027,1.451-0.027,1.922,2.029,2.17l12.888,1.525
			c0.067-1.384,0.188-3.413-3.683-4.26l0.067-0.578l4.905,0.652l-1.384,11.738l-4.919-0.544l0.067-0.571
			c3.957,0.074,4.313-1.922,4.582-3.266l-12.9-1.525c-2.076-0.249-2.185,0.222-2.473,1.653L209.354,138.674"/>
		<path fill="#FFFFFF" d="M220.918,158.671c0.101-1.103-0.04-1.606-1.605-2.05l-7.573-2.104c-1.404-0.39-3.44-1.236-4.287-2.338
			c-1.015-1.304-1.015-3.077-0.691-4.22c0.229-0.833,0.873-2.587,2.566-3.44c1.129-0.564,2.097-0.833,4.656-0.121l7.936,2.204
			c1.989,0.558,2.171,0.081,2.621-0.947l0.577,0.168l-1.773,6.417l-0.592-0.168c0.27-1.271,0.41-1.861-1.68-2.446l-7.922-2.197
			c-1.357-0.383-4.63-1.297-5.396,1.445c-0.928,3.346,2.701,4.395,4.213,4.811l7.236,2.016c1.452,0.403,2.318,0.39,2.869-1.209
			l0.592,0.161l-1.162,4.173L220.918,158.671"/>
		<path fill="#FFFFFF" d="M201.378,163.347l2.896-6.417l0.558,0.256c-0.45,1.377-0.604,1.821,1.283,2.681l11.826,5.342
			c0.483-1.297,1.203-3.191-2.225-5.174l0.235-0.523l4.489,2.089l-4.865,10.778l-4.542-2.009l0.241-0.518
			c3.75,1.27,4.704-0.538,5.349-1.733l-11.825-5.349c-1.909-0.86-2.15-0.443-2.863,0.833L201.378,163.347"/>
		<path fill="#FFFFFF" d="M214.259,174.823l-6.141,9.568l-4.173-2.674l0.262-0.417c3.198,1.506,4.476,0.659,5.913-1.572
			c0.578-0.914,0.686-1.263-0.201-1.841l-4.805-3.091c-1.048,1.586-1.055,2.769,1.364,4.677l-0.282,0.43l-7.009-4.502l0.282-0.43
			c2.722,1.465,3.877,1.021,4.938-0.625l-5.019-3.219c-0.907-0.585-1.364-0.43-2.05,0.646c-1.048,1.633-1.593,3.668,0.86,6.719
			l-0.296,0.464l-3.884-3.434l6.235-9.703l0.511,0.336c-0.477,1.021-0.746,1.579,0.538,2.406l10.024,6.45
			c1.371,0.874,1.861,0.201,2.413-0.524L214.259,174.823"/>
	</g>
	<path d="M72.27,197.26l-1.521,1.512l-0.114-0.114c0.265-0.282,0.342-0.383,0.265-0.457c-0.054-0.054-0.145-0.067-0.302-0.088
		l-1.844-0.222l-0.007,0.242l0.874,0.887c0.269,0.275,0.45,0.128,0.715-0.073l0.118,0.114l-1.532,1.512l-0.111-0.114
		c0.219-0.275,0.35-0.437,0.074-0.719l-2.167-2.191c-0.296-0.295-0.487-0.12-0.716,0.067l-0.111-0.107l1.536-1.519l0.111,0.114
		c-0.229,0.263-0.373,0.424,0.007,0.82l0.964,0.967l0.007-1.955c0-0.255,0-0.329-0.084-0.416c-0.104-0.108-0.185-0.067-0.531,0.228
		l-0.114-0.113l1.313-1.284l0.111,0.107c-0.45,0.498-0.45,0.941-0.44,2.467l3.074,0.349c0.151,0.014,0.229-0.04,0.322-0.127
		L72.27,197.26"/>
	<path d="M72.23,197.118c0.269-0.282,0.376-0.423,0.114-0.752l-1.918-2.339c-0.558-0.114-0.645-0.067-0.709-0.014l-0.104-0.121
		l1.048-0.853l3.427,0.705l0.013-0.014l-1.226-1.491c-0.239-0.296-0.434-0.41-0.86-0.107l-0.094-0.121l1.052-0.874l0.104,0.121
		c-0.319,0.343-0.249,0.471-0.064,0.713l2.382,2.902l-0.138,0.114l-4.377-0.873l-0.014,0.006l1.616,1.976
		c0.282,0.35,0.47,0.356,0.867,0.101l0.104,0.128l-1.122,0.907L72.23,197.118"/>
	<path d="M75.633,191.911c0.319,0.457,1.199,1.666,2.1,1.048c0.894-0.618,0.071-1.875-0.242-2.332
		c-0.521-0.759-1.354-1.545-2.09-1.048C74.666,190.09,75.112,191.151,75.633,191.911 M78.422,189.996
		c0.763,1.088,0.5,2.392-0.571,3.131c-1.075,0.746-2.382,0.524-3.145-0.578c-0.786-1.142-0.434-2.445,0.578-3.145
		C76.295,188.713,77.636,188.84,78.422,189.996z"/>
	<path d="M83.128,184.956c-0.181,0.121-0.228,0.329-0.181,0.571l0.779,3.965l-0.151,0.087l-2.396-2.069l-0.041,0.026l0.46,3.165
		l-0.158,0.088l-3.067-2.675c-0.242-0.215-0.333-0.235-0.588-0.134l-0.074-0.142l1.629-0.921l0.084,0.135
		c-0.191,0.135-0.346,0.229-0.229,0.437c0.037,0.061,0.091,0.107,0.145,0.155l1.791,1.633l0.014-0.007l-0.309-2.057l-0.491-0.416
		c-0.145-0.088-0.238-0.114-0.514,0.026l-0.078-0.141l1.734-0.988l0.077,0.148c-0.235,0.147-0.386,0.248-0.282,0.43
		c0.041,0.074,0.158,0.175,0.255,0.269l1.636,1.512l0.013-0.007l-0.454-2.237c-0.013-0.061-0.027-0.141-0.09-0.255
		c-0.138-0.222-0.336-0.128-0.521-0.027l-0.084-0.141l1.011-0.564L83.128,184.956"/>
	<path d="M88.666,186.959l-3.33,1.572l-0.067-0.148c0.303-0.188,0.467-0.295,0.303-0.645l-1.307-2.789
		c-0.188-0.383-0.427-0.282-0.695-0.181l-0.071-0.142l2.016-0.947l0.07,0.147c-0.4,0.209-0.571,0.303-0.339,0.8l1.287,2.735
		c0.125,0.269,0.276,0.255,0.662,0.08c0.874-0.416,0.971-1.048,0.931-1.827l0.165-0.074L88.666,186.959"/>
	<path d="M87.503,182.752l3.407-1.37l0.48,1.183l-0.145,0.061c-0.474-0.779-0.954-0.767-1.754-0.437
		c-0.322,0.134-0.42,0.194-0.316,0.45l0.551,1.377c0.571-0.229,0.81-0.504,0.604-1.276l0.151-0.054l0.806,1.995l-0.151,0.061
		c-0.373-0.705-0.746-0.766-1.337-0.524l0.584,1.425c0.104,0.269,0.249,0.282,0.628,0.135c0.584-0.235,1.122-0.632,1.136-1.68
		l0.165-0.061l0.262,1.323l-3.454,1.391l-0.07-0.147c0.322-0.168,0.494-0.255,0.349-0.625l-1.149-2.862
		c-0.158-0.396-0.41-0.309-0.692-0.208L87.503,182.752"/>
	<path d="M94.272,184.116c0.084,0.249,0.182,0.329,0.471,0.235c0.672-0.235,1.071-0.8,0.578-2.244
		c-0.178-0.544-0.759-1.78-1.804-1.425c-0.386,0.135-0.322,0.275-0.269,0.403L94.272,184.116 M92.939,185.03
		c0.386-0.128,0.44-0.343,0.366-0.571l-1.018-2.97c-0.125-0.376-0.393-0.289-0.635-0.235l-0.047-0.154l1.838-0.618
		c1.683-0.578,2.594,0.282,2.909,1.209c0.38,1.116,0.047,2.271-1.451,2.85l-1.915,0.645L92.939,185.03z"/>
	<path d="M101.388,180.831c-0.363,0.147-0.507,0.215-0.363,0.712l0.212,0.786c-0.235,0.289-1.018,0.692-1.549,0.84
		c-1.542,0.43-2.523-0.471-2.826-1.532c-0.346-1.216,0.232-2.445,1.552-2.822c0.558-0.147,1.115,0.014,1.273-0.026
		c0.165-0.04,0.188-0.188,0.208-0.356l0.165-0.047l0.399,1.432l-0.151,0.047c-0.366-0.471-1.082-1.049-1.784-0.854
		c-0.894,0.242-0.874,1.257-0.584,2.305c0.124,0.443,0.591,1.955,1.747,1.633c0.544-0.141,0.591-0.356,0.517-0.625l-0.178-0.645
		c-0.111-0.396-0.319-0.35-0.746-0.256l-0.04-0.154l2.106-0.585L101.388,180.831"/>
	<path d="M101.079,178.196l3.592-0.806l0.282,1.25l-0.165,0.033c-0.329-0.854-0.813-0.907-1.653-0.719
		c-0.343,0.08-0.447,0.127-0.383,0.39l0.322,1.444c0.598-0.128,0.88-0.362,0.796-1.148l0.161-0.034l0.474,2.097l-0.165,0.033
		c-0.242-0.752-0.608-0.873-1.219-0.732l0.339,1.506c0.06,0.275,0.198,0.315,0.604,0.234c0.605-0.147,1.203-0.45,1.381-1.478
		l0.175-0.041l0.04,1.351l-3.631,0.82l-0.037-0.154c0.346-0.121,0.531-0.182,0.447-0.564l-0.672-3.011
		c-0.098-0.403-0.359-0.356-0.655-0.315L101.079,178.196"/>
	<path d="M120.394,178.237l-0.709-1.532l-0.544,1.572L120.394,178.237 M122.39,179.661l-2.066,0.088l-0.007-0.168
		c0.393-0.047,0.511-0.061,0.504-0.269c-0.007-0.168-0.229-0.639-0.326-0.834l-1.438,0.054c-0.158,0.471-0.245,0.732-0.245,0.834
		c0.007,0.241,0.316,0.255,0.534,0.255v0.154l-1.293,0.048l-0.007-0.148c0.346-0.067,0.427-0.296,0.598-0.772l1.28-3.555h0.182
		l1.545,3.293c0.319,0.672,0.427,0.887,0.739,0.866V179.661z"/>
	<path d="M122.655,179.493c0.387-0.04,0.564-0.087,0.571-0.511l0.017-3.017c-0.359-0.443-0.457-0.464-0.537-0.464v-0.154h1.34
		l2.193,2.741h0.018l0.013-1.935c0-0.383-0.077-0.592-0.591-0.632v-0.161l1.367,0.014v0.154c-0.453,0.061-0.494,0.201-0.494,0.504
		l-0.023,3.756h-0.185l-2.812-3.467h-0.017l-0.014,2.547c0,0.456,0.131,0.584,0.608,0.631v0.161l-1.455-0.013V179.493"/>
	<path d="M128.807,179.178c-0.014,0.249,0.037,0.363,0.346,0.383c0.709,0.047,1.294-0.336,1.367-1.861
		c0.03-0.577-0.047-1.941-1.142-1.995c-0.403-0.021-0.403,0.134-0.413,0.282L128.807,179.178 M127.218,179.527
		c0.406,0.014,0.544-0.161,0.558-0.39l0.157-3.138c0.021-0.396-0.252-0.424-0.507-0.457l0.007-0.155l1.945,0.102
		c1.777,0.087,2.298,1.223,2.251,2.197c-0.054,1.183-0.8,2.137-2.402,2.103l-2.016-0.101L127.218,179.527z"/>
	<path d="M142.92,181.354l-2.035-0.383l0.033-0.154c0.424,0.047,0.558,0.054,0.658-0.478l0.611-3.299
		c-0.402-0.054-1.001-0.128-1.297,0.86l-0.168-0.027l0.256-1.27l3.42,0.632l-0.222,1.27l-0.175-0.027
		c0.081-1.034-0.504-1.169-0.887-1.27l-0.618,3.313c-0.094,0.524,0.04,0.564,0.457,0.672L142.92,181.354"/>
	<path d="M148.054,182.483l-1.922-0.437l0.034-0.154c0.309,0.026,0.523,0.054,0.618-0.329l0.322-1.432l-1.364-0.309l-0.329,1.431
		c-0.08,0.37,0.121,0.45,0.41,0.558l-0.034,0.148l-1.908-0.431l0.041-0.161c0.309,0.027,0.497,0.04,0.577-0.322l0.686-3.011
		c0.088-0.403-0.147-0.477-0.376-0.551l0.026-0.161l1.908,0.443l-0.04,0.147c-0.248-0.026-0.511-0.08-0.604,0.323l-0.289,1.29
		l1.364,0.309l0.289-1.29c0.094-0.409-0.168-0.477-0.41-0.551l0.04-0.154l1.915,0.437l-0.033,0.154
		c-0.249-0.033-0.511-0.073-0.599,0.329l-0.678,3.011c-0.095,0.376,0.101,0.443,0.39,0.558L148.054,182.483"/>
	<path d="M149.875,180.764c-0.148,0.537-0.511,1.988,0.443,2.251c0.954,0.269,1.397-1.163,1.539-1.7
		c0.248-0.894,0.342-2.036-0.438-2.244C150.634,178.842,150.123,179.87,149.875,180.764 M152.845,181.59
		c-0.363,1.29-1.438,1.949-2.58,1.626c-1.156-0.315-1.733-1.438-1.384-2.734c0.376-1.331,1.512-1.915,2.593-1.619
		C152.549,179.164,153.221,180.253,152.845,181.59z"/>
	<path d="M154.632,182.107c0.726,0.229,1.049,0.194,1.317-0.598c0.194-0.612,0.054-0.948-0.383-1.089
		c-0.303-0.101-0.343-0.04-0.438,0.141L154.632,182.107 M156.359,184.99l-1.129-0.37l-0.518-2.271l-0.148-0.048l-0.39,1.183
		c-0.161,0.478-0.047,0.545,0.296,0.72l-0.047,0.147l-1.861-0.604l0.054-0.161c0.39,0.08,0.511,0.094,0.658-0.396l0.888-2.668
		c0.175-0.524,0-0.591-0.303-0.719l0.061-0.154l1.773,0.577c0.377,0.128,1.539,0.564,1.196,1.579
		c-0.242,0.746-0.873,0.746-1.209,0.746l0.537,2.097c0.054,0.134,0.121,0.161,0.195,0.188L156.359,184.99z"/>
	<path d="M158.261,183.425c-0.188,0.523-0.699,1.935,0.222,2.284c0.934,0.362,1.498-1.028,1.7-1.546
		c0.336-0.866,0.544-1.988-0.216-2.284C159.201,181.583,158.61,182.551,158.261,183.425 M161.137,184.54
		c-0.478,1.243-1.613,1.801-2.729,1.37c-1.108-0.43-1.586-1.599-1.095-2.849c0.497-1.297,1.687-1.78,2.721-1.384
		C161.083,182.087,161.641,183.243,161.137,184.54z"/>
	<path d="M165.914,184.486c-0.316-0.095-0.464-0.088-0.639,0.309l-0.826,1.848c-0.154,0.336-0.464,0.82-0.807,0.988
		c-0.403,0.188-0.914,0.094-1.229-0.047c-0.235-0.107-0.712-0.363-0.914-0.854c-0.121-0.322-0.175-0.585,0.114-1.217l0.867-1.941
		c0.222-0.483,0.094-0.558-0.188-0.726l0.067-0.148l1.78,0.807l-0.061,0.147c-0.362-0.141-0.523-0.208-0.752,0.31l-0.874,1.936
		c-0.147,0.336-0.518,1.129,0.256,1.478c0.927,0.417,1.344-0.47,1.505-0.847l0.8-1.76c0.154-0.363,0.182-0.578-0.263-0.82
		l0.067-0.141l1.156,0.523L165.914,184.486"/>
	<path d="M168.917,188.813c-0.336-0.121-0.463-0.168-0.712,0.295l-0.363,0.72c-0.349,0.061-1.128-0.142-1.572-0.383
		c-1.29-0.659-1.344-1.956-0.833-2.943c0.578-1.115,1.774-1.667,2.876-1.089c0.464,0.242,0.719,0.726,0.847,0.793
		c0.147,0.067,0.255-0.014,0.376-0.128l0.142,0.067l-0.692,1.324l-0.134-0.067c0.08-0.592,0-1.479-0.592-1.774
		c-0.739-0.39-1.397,0.363-1.908,1.331c-0.201,0.403-0.9,1.827,0.067,2.331c0.443,0.242,0.618,0.114,0.752-0.141l0.31-0.592
		c0.182-0.349,0.026-0.45-0.322-0.665l0.08-0.135l1.761,0.921L168.917,188.813"/>
	<path d="M171.981,192.616l-1.693-1.028l0.081-0.141c0.282,0.128,0.483,0.215,0.685-0.114l0.767-1.25l-1.196-0.719l-0.766,1.25
		c-0.202,0.329-0.034,0.47,0.201,0.651l-0.067,0.142l-1.68-1.021l0.088-0.135c0.288,0.121,0.463,0.195,0.651-0.128l1.612-2.634
		c0.215-0.355,0-0.504-0.188-0.651l0.08-0.135l1.673,1.021l-0.08,0.128c-0.229-0.114-0.471-0.242-0.692,0.128l-0.679,1.115
		l1.203,0.732l0.672-1.129c0.229-0.356,0-0.504-0.201-0.659l0.08-0.141l1.687,1.028l-0.08,0.141
		c-0.229-0.121-0.457-0.229-0.679,0.121l-1.6,2.634c-0.201,0.329-0.04,0.457,0.188,0.652L171.981,192.616"/>
	<path d="M172.176,192.563c0.31,0.161,0.464,0.215,0.706-0.121l1.747-2.459c-0.014-0.551-0.067-0.618-0.135-0.672l0.095-0.121
		l1.001,0.706l0.067,3.386l0.006,0.007l1.116-1.572c0.222-0.309,0.288-0.524-0.067-0.833l0.087-0.128l1.015,0.726l-0.094,0.128
		c-0.37-0.188-0.484-0.094-0.658,0.154l-2.178,3.058l-0.134-0.087l-0.107-4.314v-0.007l-1.479,2.07
		c-0.269,0.376-0.242,0.551,0.08,0.84l-0.094,0.127l-1.075-0.759L172.176,192.563"/>
	<path d="M178.184,191.756l2.573,2.131l-0.813,0.987l-0.114-0.081c0.471-0.792,0.256-1.176-0.336-1.68
		c-0.255-0.194-0.349-0.255-0.523-0.04l-0.941,1.143c0.424,0.362,0.76,0.43,1.331-0.128l0.107,0.087l-1.371,1.674l-0.114-0.102
		c0.457-0.658,0.343-0.994-0.094-1.363l-0.975,1.189c-0.182,0.222-0.147,0.349,0.142,0.591c0.437,0.363,1.001,0.611,1.888,0.094
		l0.128,0.108l-1.015,0.88l-2.621-2.157l0.108-0.128c0.282,0.182,0.423,0.282,0.679-0.026l1.962-2.386
		c0.269-0.322,0.087-0.483-0.102-0.672L178.184,191.756"/>
	<path d="M182.302,197.104c0.235-0.402,0.498-1.169,0-1.639c-0.215-0.209-0.584-0.296-0.859,0c-0.242,0.255-0.256,0.43-0.095,0.96
		l0.289,0.921c0.067,0.222,0.128,0.793-0.343,1.29c-0.39,0.403-1.195,0.706-1.962-0.026c-0.403-0.377-0.443-0.72-0.571-0.847
		c-0.087-0.081-0.181-0.014-0.269,0.04l-0.128-0.121l1.089-1.129l0.128,0.114c-0.37,0.544-0.625,1.297-0.088,1.808
		c0.504,0.478,0.961,0.04,1.021-0.021c0.289-0.309,0.202-0.604,0.067-1.015l-0.141-0.409c-0.356-1.068,0.02-1.458,0.222-1.674
		c0.269-0.269,1.001-0.779,1.801-0.02c0.329,0.315,0.383,0.665,0.497,0.779c0.101,0.087,0.188,0.04,0.295-0.021l0.128,0.114
		l-0.961,1.001L182.302,197.104"/>
	<path d="M184.627,199.584c0.256-0.376,0.578-1.129,0.114-1.633c-0.208-0.229-0.558-0.336-0.867-0.061
		c-0.255,0.235-0.288,0.41-0.161,0.948l0.229,0.947c0.054,0.222,0.081,0.799-0.443,1.256c-0.41,0.377-1.229,0.632-1.948-0.161
		c-0.363-0.409-0.377-0.752-0.504-0.887c-0.088-0.087-0.188-0.027-0.275,0.014l-0.121-0.121l1.169-1.062l0.114,0.128
		c-0.396,0.517-0.705,1.249-0.215,1.794c0.47,0.523,0.961,0.12,1.021,0.066c0.315-0.282,0.248-0.598,0.141-1.008l-0.114-0.43
		c-0.275-1.089,0.128-1.451,0.35-1.64c0.282-0.269,1.048-0.712,1.78,0.101c0.323,0.343,0.35,0.692,0.457,0.813
		c0.095,0.094,0.188,0.054,0.289-0.007l0.128,0.128l-1.035,0.927L184.627,199.584"/>
	<path fill="#EA1B2D" d="M122.094,131.175l-4.384,0.041c0-1.956,0.736-3.75,1.938-5.107c1.411-1.592,3.471-2.586,5.755-2.586
		l-0.007,3.111l-2.946,0.35L122.094,131.175"/>
	<path fill="#EA1B2D" d="M128.851,131.175l4.253,0.041c0,2.23-0.94,4.232-2.452,5.63c-1.368,1.291-3.219,2.07-5.248,2.07v-3.951
		l2.956-0.471L128.851,131.175"/>
	<g>
		<path fill="#EA1B2D" d="M120.441,94.575c0.061-0.208,0.145-0.417,0.44-0.498c0.145-0.047,0.178,0.047,0.071,0.081
			c-0.111,0.034-0.255,0.094-0.386,0.33C120.434,94.723,120.421,94.649,120.441,94.575"/>
		<path fill="none" stroke="#EA1B2D" stroke-width="0.7156" stroke-linejoin="round" d="M109.7,96.819
			c0.077,0.531,3.014,1.122,5.167,1.122c2.154,0,5.208-0.571,5.224-1.042"/>
		<path fill="none" stroke="#EA1B2D" stroke-width="0.4816" stroke-linejoin="round" d="M92.774,97.82c2.153,0,5.258-0.37,5.332-0.9
			c0.077-0.524,0.531-2.338,1.817-3.057c-0.571-0.417-1.018-0.457-1.74,0.222c-0.42-0.417-0.904-0.04-1.246,0.269
			c0.806,0.289,0.729,0.712,0.373,0.981c-0.359,0.282-0.752,0.342-1.357,0.127c-0.46-0.175-1.018-0.484-0.907-0.934
			c0.067-0.309,0.316-0.706,0.947-0.443c-0.527-1.767-2.345-1.129-2.345-1.129s-0.46-1.25-0.874-1.25c-0.42,0-0.88,1.25-0.88,1.25
			s-1.818-0.638-2.349,1.129c0.642-0.262,0.884,0.134,0.951,0.443c0.111,0.45-0.37,0.759-0.833,0.934
			c-0.611,0.215-1.072,0.155-1.431-0.127c-0.363-0.269-0.427-0.692,0.373-0.981c-0.343-0.309-0.833-0.686-1.247-0.269
			c-0.715-0.679-1.169-0.638-1.74-0.222c1.287,0.719,1.74,2.533,1.817,3.057C87.51,97.451,90.621,97.82,92.774,97.82z"/>
		<path fill="none" stroke="#EA1B2D" stroke-width="0.7156" d="M87.58,97.102c0-0.538,2.98-0.9,5.134-0.9
			c2.153,0,5.181,0.363,5.181,0.9"/>
		<path fill="none" stroke="#EA1B2D" stroke-width="0.5986" stroke-linejoin="round" d="M97.296,96.766v0.571 M96.457,96.678v0.726
			 M95.623,96.598v0.874 M94.783,96.503v1.075 M93.943,96.409V97.8 M93.104,96.329v1.344 M88.074,96.766v0.571 M88.914,96.625v0.779
			 M89.754,96.537v0.934 M90.594,96.443v1.102 M91.434,96.409v1.203 M92.264,96.329v1.344"/>
		<path fill="none" stroke="#EA1B2D" stroke-width="0.4816" stroke-linejoin="round" d="M96.786,94.326c0,0,0.92,0.498,0.571,0.948
			 M88.666,94.313c0,0-0.823,0.511-0.48,0.961 M89.589,94.071c0.336-0.155,1.3,0.732-0.064,1.411 M95.946,94.078
			c-0.343-0.147-1.253,0.726,0.104,1.404"/>
		<path fill="#EA1B2D" d="M92.727,95.267c0.007,0.054,0.061,0.061,0.074-0.007c0.04-0.497,0.124-1.814,0.151-2.069
			c0.034-0.336-0.42-0.329-0.376,0C92.603,93.433,92.664,94.776,92.727,95.267"/>
		<path fill="#EA1B2D" d="M94.434,93.654c-0.387,0-0.917,0.417-0.723,1.337c0.021,0.074,0.121,0.061,0.114-0.02
			c-0.007-0.074,0.007-0.854,0.662-1.136C94.562,93.822,94.555,93.654,94.434,93.654"/>
		<path fill="#EA1B2D" d="M91.074,93.654c0.38,0,0.9,0.417,0.716,1.337c-0.014,0.074-0.125,0.061-0.118-0.02
			c0.006-0.074-0.007-0.854-0.659-1.136C90.937,93.822,90.943,93.654,91.074,93.654"/>
		<path fill="#EA1B2D" d="M91.729,95.522c-0.057,0-0.098-0.047-0.098-0.107c0-0.054,0.041-0.094,0.098-0.094
			c0.061,0,0.101,0.041,0.101,0.094C91.83,95.476,91.79,95.522,91.729,95.522"/>
		<path fill="#EA1B2D" d="M91.219,95.899c-0.047,0-0.087-0.041-0.087-0.087c0-0.047,0.041-0.081,0.087-0.081
			s0.084,0.033,0.084,0.081C91.303,95.858,91.266,95.899,91.219,95.899"/>
		<path fill="#EA1B2D" d="M90.497,95.979c-0.047,0-0.081-0.047-0.081-0.087c0-0.054,0.034-0.087,0.081-0.087
			c0.054,0,0.09,0.034,0.09,0.087C90.587,95.932,90.55,95.979,90.497,95.979"/>
		<path fill="#EA1B2D" d="M89.65,96.107c-0.054,0-0.104-0.047-0.104-0.101c0-0.061,0.051-0.101,0.104-0.101
			c0.063,0,0.104,0.041,0.104,0.101C89.754,96.06,89.713,96.107,89.65,96.107"/>
		<path fill="#EA1B2D" d="M88.823,96.228c-0.061,0-0.114-0.047-0.114-0.107s0.054-0.107,0.114-0.107
			c0.064,0,0.111,0.047,0.111,0.107S88.887,96.228,88.823,96.228"/>
		<path fill="#EA1B2D" d="M87.98,96.409c-0.07,0-0.125-0.054-0.125-0.114c0-0.081,0.054-0.128,0.125-0.128
			c0.061,0,0.114,0.047,0.114,0.128C88.094,96.355,88.041,96.409,87.98,96.409"/>
		<path fill="#EA1B2D" d="M94.283,95.899c0.047,0,0.087-0.041,0.087-0.087c0-0.047-0.041-0.081-0.087-0.081
			c-0.05,0-0.084,0.033-0.084,0.081C94.199,95.858,94.232,95.899,94.283,95.899"/>
		<path fill="#EA1B2D" d="M95.005,95.979c0.047,0,0.087-0.047,0.087-0.087c0-0.054-0.04-0.087-0.087-0.087
			c-0.05,0-0.091,0.034-0.091,0.087C94.914,95.932,94.955,95.979,95.005,95.979"/>
		<path fill="#EA1B2D" d="M95.848,96.107c0.057,0,0.098-0.047,0.098-0.101c0-0.061-0.041-0.101-0.098-0.101
			c-0.054,0-0.101,0.041-0.101,0.101C95.748,96.06,95.794,96.107,95.848,96.107"/>
		<path fill="#EA1B2D" d="M96.682,96.228c0.057,0,0.111-0.047,0.111-0.107s-0.054-0.107-0.111-0.107
			c-0.067,0-0.118,0.047-0.118,0.107S96.614,96.228,96.682,96.228"/>
		<path fill="#EA1B2D" d="M97.521,96.409c0.07,0,0.124-0.054,0.124-0.114c0-0.081-0.054-0.128-0.124-0.128
			c-0.061,0-0.118,0.047-0.118,0.128C97.404,96.355,97.461,96.409,97.521,96.409"/>
		<path fill="#EA1B2D" d="M93.772,95.522c-0.054,0-0.097-0.047-0.097-0.107c0-0.054,0.043-0.094,0.097-0.094
			s0.098,0.041,0.098,0.094C93.87,95.476,93.826,95.522,93.772,95.522"/>
		<path fill="#EA1B2D" d="M87.691,94.44c-0.09,0.188-0.269,0.323-0.023,0.907c0.044,0.175-0.04,0.262-0.151,0.081
			c-0.185-0.322-0.269-0.813-0.06-1.055C87.667,94.125,87.738,94.347,87.691,94.44"/>
		<path fill="#EA1B2D" d="M87.18,94.602c-0.07-0.208-0.144-0.417-0.44-0.498c-0.145-0.047-0.178,0.041-0.07,0.081
			c0.111,0.033,0.255,0.101,0.386,0.329C87.194,94.75,87.201,94.676,87.18,94.602"/>
		<path fill="#EA1B2D" d="M97.811,94.44c0.09,0.188,0.269,0.323,0.02,0.907c-0.034,0.175,0.05,0.262,0.151,0.081
			c0.195-0.322,0.269-0.813,0.064-1.055C97.837,94.125,97.763,94.347,97.811,94.44"/>
		<path fill="#EA1B2D" d="M98.328,94.602c0.054-0.208,0.138-0.417,0.434-0.498c0.145-0.047,0.178,0.041,0.067,0.081
			c-0.101,0.033-0.245,0.101-0.383,0.329C98.314,94.75,98.301,94.676,98.328,94.602"/>
		<path fill="none" stroke="#EA1B2D" stroke-width="0.7156" stroke-linejoin="round" d="M87.587,96.846
			c0.067,0.531,3.007,1.122,5.161,1.122c2.153,0,5.207-0.571,5.221-1.042"/>
		<path fill="none" stroke="#EA1B2D" stroke-width="0.4816" stroke-linejoin="round" d="M103.653,104.5
			c2.153,0,5.251-0.37,5.325-0.9c0.077-0.524,0.537-2.338,1.817-3.057c-0.564-0.417-1.018-0.45-1.74,0.228
			c-0.414-0.417-0.904-0.04-1.247,0.262c0.803,0.289,0.736,0.719,0.38,0.995c-0.36,0.269-0.753,0.336-1.357,0.114
			c-0.467-0.168-1.018-0.484-0.914-0.927c0.067-0.309,0.316-0.712,0.948-0.444c-0.528-1.774-2.338-1.135-2.338-1.135
			s-0.46-1.243-0.88-1.243s-0.88,1.243-0.88,1.243s-1.811-0.639-2.341,1.135c0.635-0.269,0.874,0.135,0.951,0.444
			c0.104,0.443-0.373,0.759-0.84,0.927c-0.605,0.222-1.072,0.154-1.431-0.114c-0.363-0.275-0.427-0.706,0.379-0.995
			c-0.346-0.302-0.833-0.679-1.247-0.262c-0.722-0.678-1.176-0.645-1.747-0.228c1.287,0.719,1.747,2.533,1.818,3.057
			C98.381,104.13,101.499,104.5,103.653,104.5z"/>
		<path fill="none" stroke="#EA1B2D" stroke-width="0.7156" d="M98.452,103.787c0-0.538,2.977-0.9,5.13-0.9
			c2.154,0,5.184,0.363,5.184,0.9"/>
		<path fill="none" stroke="#EA1B2D" stroke-width="0.5986" stroke-linejoin="round" d="M108.171,103.444v0.571 M107.335,103.357
			v0.732 M106.495,103.276v0.874 M105.655,103.189v1.075 M104.815,103.088v1.391 M103.975,103.008v1.351 M98.946,103.444v0.571
			 M99.786,103.303v0.786 M100.625,103.223v0.927 M101.466,103.122v1.102 M102.302,103.088v1.203 M103.142,103.008v1.351"/>
		<path fill="none" stroke="#EA1B2D" stroke-width="0.4816" stroke-linejoin="round" d="M107.657,101.005
			c0,0,0.921,0.504,0.578,0.947 M99.537,100.992c0,0-0.826,0.517-0.474,0.96 M100.461,100.75c0.343-0.148,1.3,0.739-0.057,1.418
			 M106.817,100.757c-0.336-0.141-1.253,0.732,0.104,1.411"/>
		<path fill="#EA1B2D" d="M103.599,101.946c0.013,0.054,0.067,0.06,0.074-0.007c0.047-0.491,0.125-1.814,0.151-2.063
			c0.034-0.343-0.42-0.336-0.38-0.007C103.475,100.112,103.542,101.462,103.599,101.946"/>
		<path fill="#EA1B2D" d="M105.302,100.34c-0.383,0-0.907,0.41-0.722,1.33c0.023,0.081,0.124,0.067,0.124-0.02
			c-0.013-0.074,0-0.854,0.655-1.136C105.44,100.501,105.434,100.34,105.302,100.34"/>
		<path fill="#EA1B2D" d="M101.946,100.34c0.379,0,0.907,0.41,0.722,1.33c-0.02,0.081-0.125,0.067-0.125-0.02
			c0.014-0.074,0-0.854-0.658-1.136C101.808,100.501,101.822,100.34,101.946,100.34"/>
		<path fill="#EA1B2D" d="M102.608,102.202c-0.057,0-0.104-0.047-0.104-0.101s0.047-0.101,0.104-0.101
			c0.054,0,0.101,0.047,0.101,0.101S102.662,102.202,102.608,102.202"/>
		<path fill="#EA1B2D" d="M102.09,102.578c-0.04,0-0.084-0.04-0.084-0.087c0-0.047,0.044-0.074,0.084-0.074
			c0.047,0,0.084,0.027,0.084,0.074C102.174,102.538,102.138,102.578,102.09,102.578"/>
		<path fill="#EA1B2D" d="M101.375,102.665c-0.047,0-0.091-0.04-0.091-0.094c0-0.047,0.043-0.087,0.091-0.087
			c0.047,0,0.091,0.04,0.091,0.087C101.466,102.625,101.422,102.665,101.375,102.665"/>
		<path fill="#EA1B2D" d="M100.528,102.786c-0.061,0-0.104-0.047-0.104-0.101s0.043-0.101,0.104-0.101
			c0.054,0,0.097,0.047,0.097,0.101S100.582,102.786,100.528,102.786"/>
		<path fill="#EA1B2D" d="M99.702,102.92c-0.067,0-0.114-0.054-0.114-0.121c0-0.061,0.047-0.107,0.114-0.107
			c0.057,0,0.104,0.047,0.104,0.107C99.806,102.867,99.759,102.92,99.702,102.92"/>
		<path fill="#EA1B2D" d="M98.849,103.088c-0.067,0-0.114-0.054-0.114-0.114c0-0.074,0.047-0.127,0.114-0.127
			c0.07,0,0.117,0.054,0.117,0.127C98.966,103.035,98.919,103.088,98.849,103.088"/>
		<path fill="#EA1B2D" d="M105.158,102.578c0.051,0,0.084-0.04,0.084-0.087c0-0.047-0.033-0.074-0.084-0.074
			c-0.047,0-0.081,0.027-0.081,0.074C105.077,102.538,105.111,102.578,105.158,102.578"/>
		<path fill="#EA1B2D" d="M105.88,102.665c0.05,0,0.084-0.04,0.084-0.094c0-0.047-0.034-0.087-0.084-0.087
			c-0.054,0-0.094,0.04-0.094,0.087C105.786,102.625,105.827,102.665,105.88,102.665"/>
		<path fill="#EA1B2D" d="M106.72,102.786c0.057,0,0.104-0.047,0.104-0.101s-0.047-0.101-0.104-0.101
			c-0.047,0-0.094,0.047-0.094,0.101S106.673,102.786,106.72,102.786"/>
		<path fill="#EA1B2D" d="M107.553,102.92c0.054,0,0.111-0.054,0.111-0.121c0-0.061-0.057-0.107-0.111-0.107
			c-0.061,0-0.111,0.047-0.111,0.107C107.442,102.867,107.493,102.92,107.553,102.92"/>
		<path fill="#EA1B2D" d="M108.4,103.088c0.067,0,0.125-0.054,0.125-0.114c0-0.074-0.057-0.127-0.125-0.127
			s-0.118,0.054-0.118,0.127C108.282,103.035,108.333,103.088,108.4,103.088"/>
		<path fill="#EA1B2D" d="M104.644,102.202c-0.051,0-0.098-0.047-0.098-0.101s0.047-0.101,0.098-0.101
			c0.06,0,0.104,0.047,0.104,0.101S104.704,102.202,104.644,102.202"/>
		<path fill="#EA1B2D" d="M98.566,101.126c-0.087,0.181-0.266,0.322-0.027,0.907c0.043,0.168-0.041,0.255-0.151,0.074
			c-0.185-0.316-0.262-0.813-0.054-1.055C98.54,100.804,98.617,101.025,98.566,101.126"/>
		<path fill="#EA1B2D" d="M98.052,101.281c-0.064-0.208-0.145-0.417-0.434-0.497c-0.151-0.047-0.178,0.047-0.077,0.081
			c0.111,0.041,0.255,0.101,0.386,0.336C98.065,101.429,98.079,101.355,98.052,101.281"/>
		<path fill="#EA1B2D" d="M108.682,101.126c0.091,0.181,0.269,0.322,0.02,0.907c-0.033,0.168,0.047,0.255,0.151,0.074
			c0.195-0.316,0.269-0.813,0.064-1.055C108.716,100.804,108.635,101.025,108.682,101.126"/>
		<path fill="#EA1B2D" d="M109.2,101.281c0.06-0.208,0.145-0.417,0.433-0.497c0.145-0.047,0.178,0.047,0.067,0.081
			c-0.104,0.041-0.249,0.101-0.38,0.336C109.183,101.429,109.169,101.355,109.2,101.281"/>
		<path fill="none" stroke="#EA1B2D" stroke-width="0.7156" stroke-linejoin="round" d="M98.458,103.532
			c0.074,0.531,3.014,1.122,5.161,1.122c2.16,0,5.208-0.571,5.221-1.048"/>
		<path fill="none" stroke="#EA1B2D" stroke-width="0.4816" stroke-linejoin="round" d="M114.894,97.793
			c2.154,0,5.258-0.376,5.335-0.894c0.074-0.531,0.527-2.352,1.814-3.064c-0.571-0.41-1.018-0.457-1.74,0.222
			c-0.42-0.417-0.907-0.034-1.247,0.269c0.8,0.289,0.729,0.712,0.373,0.988c-0.359,0.276-0.749,0.336-1.357,0.121
			c-0.467-0.168-1.018-0.477-0.907-0.934c0.071-0.309,0.316-0.706,0.944-0.443c-0.524-1.767-2.342-1.129-2.342-1.129
			s-0.46-1.25-0.88-1.25c-0.413,0-0.88,1.25-0.88,1.25s-1.808-0.638-2.338,1.129c0.638-0.262,0.88,0.134,0.947,0.443
			c0.104,0.457-0.37,0.766-0.83,0.934c-0.615,0.215-1.075,0.155-1.438-0.121c-0.359-0.275-0.42-0.699,0.376-0.988
			c-0.342-0.302-0.833-0.685-1.243-0.269c-0.723-0.679-1.179-0.631-1.744-0.222c1.287,0.712,1.744,2.533,1.817,3.064
			C109.633,97.417,112.741,97.793,114.894,97.793z"/>
		<path fill="none" stroke="#EA1B2D" stroke-width="0.7156" d="M109.7,97.075c0-0.538,2.98-0.9,5.127-0.9
			c2.16,0,5.18,0.363,5.18,0.9"/>
		<path fill="none" stroke="#EA1B2D" stroke-width="0.5986" stroke-linejoin="round" d="M119.416,96.739v0.571 M118.576,96.651
			v0.726 M117.736,96.564v0.88 M116.903,96.477v1.082 M116.063,96.382v1.391 M115.227,96.302v1.351 M110.197,96.739v0.571
			 M111.034,96.598v0.779 M111.874,96.51v0.934 M112.714,96.416v1.102 M113.547,96.382v1.203 M114.387,96.302v1.351"/>
		<path fill="none" stroke="#EA1B2D" stroke-width="0.4816" stroke-linejoin="round" d="M118.906,94.299
			c0,0,0.924,0.498,0.571,0.948 M110.782,94.286c0,0-0.819,0.511-0.477,0.961 M111.709,94.044c0.336-0.155,1.3,0.732-0.06,1.417
			 M118.059,94.051c-0.336-0.147-1.25,0.726,0.104,1.411"/>
		<path fill="#EA1B2D" d="M114.847,95.24c0.007,0.054,0.061,0.061,0.067-0.007c0.051-0.497,0.131-1.807,0.155-2.063
			c0.041-0.35-0.413-0.343-0.373-0.007C114.716,93.399,114.787,94.75,114.847,95.24"/>
		<path fill="#EA1B2D" d="M116.554,93.627c-0.393,0-0.914,0.417-0.729,1.337c0.027,0.074,0.131,0.061,0.125-0.02
			c-0.007-0.074,0.006-0.854,0.658-1.136C116.685,93.795,116.678,93.627,116.554,93.627"/>
		<path fill="#EA1B2D" d="M113.194,93.627c0.379,0,0.903,0.417,0.715,1.337c-0.013,0.074-0.121,0.061-0.114-0.02
			c0.007-0.074-0.006-0.854-0.662-1.136C113.06,93.795,113.066,93.627,113.194,93.627"/>
		<path fill="#EA1B2D" d="M113.849,95.496c-0.054,0-0.097-0.047-0.097-0.107c0-0.054,0.043-0.094,0.097-0.094
			s0.104,0.041,0.104,0.094C113.954,95.449,113.903,95.496,113.849,95.496"/>
		<path fill="#EA1B2D" d="M113.332,95.872c-0.041,0-0.081-0.041-0.081-0.087c0-0.047,0.04-0.087,0.081-0.087
			c0.05,0,0.091,0.04,0.091,0.087C113.423,95.832,113.382,95.872,113.332,95.872"/>
		<path fill="#EA1B2D" d="M112.616,95.953c-0.047,0-0.087-0.041-0.087-0.087c0-0.047,0.041-0.087,0.087-0.087
			c0.05,0,0.091,0.04,0.091,0.087C112.707,95.912,112.667,95.953,112.616,95.953"/>
		<path fill="#EA1B2D" d="M111.773,96.08c-0.057,0-0.104-0.047-0.104-0.107c0-0.054,0.047-0.094,0.104-0.094
			c0.054,0,0.101,0.041,0.101,0.094C111.874,96.033,111.827,96.08,111.773,96.08"/>
		<path fill="#EA1B2D" d="M110.947,96.208c-0.064,0-0.118-0.047-0.118-0.114c0-0.061,0.054-0.114,0.118-0.114
			c0.06,0,0.101,0.054,0.101,0.114C111.047,96.161,111.007,96.208,110.947,96.208"/>
		<path fill="#EA1B2D" d="M110.093,96.382c-0.064,0-0.118-0.054-0.118-0.121c0-0.074,0.054-0.121,0.118-0.121
			c0.067,0,0.124,0.047,0.124,0.121C110.217,96.329,110.16,96.382,110.093,96.382"/>
		<path fill="#EA1B2D" d="M116.403,95.872c0.047,0,0.087-0.041,0.087-0.087c0-0.047-0.04-0.087-0.087-0.087
			c-0.051,0-0.084,0.04-0.084,0.087C116.319,95.832,116.352,95.872,116.403,95.872"/>
		<path fill="#EA1B2D" d="M117.125,95.953c0.047,0,0.087-0.041,0.087-0.087c0-0.047-0.041-0.087-0.087-0.087
			c-0.057,0-0.091,0.04-0.091,0.087C117.034,95.912,117.068,95.953,117.125,95.953"/>
		<path fill="#EA1B2D" d="M117.972,96.08c0.047,0,0.094-0.047,0.094-0.107c0-0.054-0.047-0.094-0.094-0.094
			c-0.057,0-0.104,0.041-0.104,0.094C117.867,96.033,117.915,96.08,117.972,96.08"/>
		<path fill="#EA1B2D" d="M118.798,96.208c0.061,0,0.108-0.047,0.108-0.114c0-0.061-0.047-0.114-0.108-0.114
			c-0.063,0-0.111,0.054-0.111,0.114C118.687,96.161,118.734,96.208,118.798,96.208"/>
		<path fill="#EA1B2D" d="M119.641,96.382c0.071,0,0.125-0.054,0.125-0.121c0-0.074-0.054-0.121-0.125-0.121
			c-0.06,0-0.114,0.047-0.114,0.121C119.527,96.329,119.581,96.382,119.641,96.382"/>
		<path fill="#EA1B2D" d="M115.892,95.496c-0.054,0-0.101-0.047-0.101-0.107c0-0.054,0.047-0.094,0.101-0.094
			c0.057,0,0.097,0.041,0.097,0.094C115.989,95.449,115.949,95.496,115.892,95.496"/>
		<path fill="#EA1B2D" d="M109.811,94.42c-0.091,0.182-0.269,0.316-0.02,0.9c0.04,0.175-0.051,0.262-0.151,0.074
			c-0.195-0.316-0.269-0.807-0.064-1.048C109.784,94.098,109.858,94.32,109.811,94.42"/>
		<path fill="#EA1B2D" d="M109.3,94.575c-0.067-0.208-0.151-0.417-0.44-0.498c-0.145-0.047-0.178,0.047-0.067,0.081
			c0.111,0.034,0.245,0.094,0.383,0.33C109.314,94.723,109.32,94.649,109.3,94.575"/>
		<path fill="#EA1B2D" d="M119.93,94.42c0.084,0.182,0.262,0.316,0.023,0.9c-0.037,0.175,0.041,0.262,0.151,0.074
			c0.191-0.316,0.269-0.807,0.054-1.048C119.96,94.098,119.876,94.32,119.93,94.42"/>
	</g>
</g>
</svg>
